<mxfile host="app.diagrams.net" agent="Mozilla/5.0 (Windows NT 10.0; Win64; x64; rv:132.0) Gecko/20100101 Firefox/132.0" version="24.8.4">
  <diagram name="Page-1" id="pjpewN-Yp3IfkavCzUZb">
    <mxGraphModel dx="1434" dy="746" grid="1" gridSize="10" guides="1" tooltips="1" connect="1" arrows="1" fold="1" page="1" pageScale="1" pageWidth="827" pageHeight="1169" math="0" shadow="0">
      <root>
        <mxCell id="0" />
        <mxCell id="1" parent="0" />
        <mxCell id="JSjSHIye_wGC4dCE1tIP-1" value="START" style="ellipse;whiteSpace=wrap;html=1;" parent="1" vertex="1">
          <mxGeometry x="520" y="10" width="120" height="80" as="geometry" />
        </mxCell>
        <mxCell id="SO7u0gcXOYJqLn8CldQe-1" value="&lt;div&gt;&amp;nbsp;1.Initalize game board&lt;/div&gt;&lt;div&gt;2. Bots turn &lt;br&gt;&lt;/div&gt;&lt;div&gt;3. Generate all possible moves for bot&lt;br&gt;&lt;/div&gt;&lt;div&gt;4. Evaluate response from human (Minimax)&lt;br&gt;&lt;/div&gt;&lt;div&gt;5. Return best possible score&lt;/div&gt;&lt;div&gt;6. Choose the best move&lt;/div&gt;&lt;div&gt;7. Place piece and update game state&lt;/div&gt;&lt;div&gt;8. Check game end condition &lt;br&gt;&lt;/div&gt;&lt;div&gt;9. Human turn - loop &lt;br&gt;&lt;/div&gt;" style="whiteSpace=wrap;html=1;aspect=fixed;" vertex="1" parent="1">
          <mxGeometry x="11" width="300" height="300" as="geometry" />
        </mxCell>
        <mxCell id="SO7u0gcXOYJqLn8CldQe-2" value="&lt;div&gt;board = empty_board&lt;/div&gt;&lt;div&gt;&lt;br&gt;&lt;/div&gt;" style="whiteSpace=wrap;html=1;aspect=fixed;" vertex="1" parent="1">
          <mxGeometry x="530" y="120" width="130" height="130" as="geometry" />
        </mxCell>
      </root>
    </mxGraphModel>
  </diagram>
</mxfile>
